<svg xmlns="http://www.w3.org/2000/svg" xmlns:xlink="http://www.w3.org/1999/xlink" width="1080" zoomAndPan="magnify" viewBox="0 0 810 809.999993" height="1080" preserveAspectRatio="xMidYMid meet" version="1.0"><defs><g/><clipPath id="25d77214a0"><path d="M 116 121.1875 L 559 121.1875 L 559 436 L 116 436 Z M 116 121.1875 " clip-rule="nonzero"/></clipPath><clipPath id="f3313863a3"><path d="M 412.433594 301.375 L 705.683594 301.375 L 705.683594 626 L 412.433594 626 Z M 412.433594 301.375 " clip-rule="nonzero"/></clipPath></defs><rect x="-81" width="972" fill="#ffffff" y="-80.999999" height="971.999992" fill-opacity="1"/><rect x="-81" width="972" fill="#212529" y="-80.999999" height="971.999992" fill-opacity="1"/><g clip-path="url(#25d77214a0)"><path fill="#ffffff" d="M 281.449219 433.824219 C 176.214844 416.328125 105.511719 269.941406 132.617188 172.59375 C 132.707031 172.320312 132.523438 172.140625 132.34375 172.046875 C 132.164062 171.957031 131.890625 172.046875 131.800781 172.230469 C 104.605469 221.175781 115.664062 288.25 145.667969 342.09375 C 178.027344 400.195312 232.414062 443.160156 281.359375 434.640625 C 281.542969 434.640625 281.722656 434.457031 281.722656 434.1875 C 281.722656 433.914062 281.632812 433.824219 281.449219 433.824219 M 388.773438 341.460938 C 386.957031 360.222656 382.699219 380.886719 364.660156 390.859375 C 327.949219 411.253906 272.207031 355.238281 234.769531 288.796875 C 197.335938 222.535156 178.207031 145.851562 214.648438 125.003906 C 219.632812 122.195312 225.707031 121.199219 232.503906 121.742188 L 379.980469 135.882812 L 269.757812 134.25 C 275.832031 137.421875 281.8125 141.046875 287.523438 144.945312 L 558.90625 159.992188 L 304.566406 157.726562 C 309.550781 161.894531 313.992188 166.066406 317.707031 170.054688 L 472.886719 182.199219 L 327.769531 183.015625 L 318.160156 182.925781 L 317.164062 182.925781 C 289.15625 152.46875 253.351562 129.628906 233.5 140.777344 C 179.117188 171.503906 306.46875 397.203125 360.855469 366.566406 C 371.277344 360.675781 375.902344 346.171875 376.355469 328.042969 L 378.347656 328.042969 L 547.488281 329.675781 Z M 388.773438 341.460938 " fill-opacity="1" fill-rule="evenodd"/></g><path fill="#ffffff" d="M 305.199219 421.316406 C 317.796875 420.410156 331.394531 415.152344 341.003906 408.171875 C 334.929688 417.960938 315.261719 424.125 305.199219 421.316406 M 279.367188 394.9375 C 288.160156 397.839844 298.855469 397.023438 307.554688 393.308594 C 300.304688 400.738281 285.257812 400.648438 279.367188 394.9375 Z M 265.136719 395.753906 C 269.9375 404.09375 282.355469 405.816406 283.355469 415.0625 C 283.625 417.054688 283.625 419.140625 283.535156 421.132812 C 283.445312 421.949219 283.445312 422.675781 283.355469 423.492188 C 283.265625 424.304688 283.171875 425.03125 282.992188 425.847656 C 282.902344 426.210938 282.808594 426.480469 282.628906 426.753906 C 282.449219 427.027344 282.175781 427.296875 281.902344 427.480469 C 281.632812 427.660156 281.269531 427.75 280.996094 427.839844 C 280.636719 427.933594 280.363281 427.933594 280 427.839844 C 271.480469 425.847656 262.777344 422.765625 254.167969 418.6875 C 245.554688 414.609375 237.035156 409.621094 228.605469 403.640625 L 228.425781 403.457031 L 228.335938 403.367188 C 227.972656 403.003906 227.699219 402.460938 227.609375 402.007812 C 227.519531 401.375 227.609375 400.738281 228.0625 400.195312 C 229.148438 398.65625 230.238281 397.023438 231.144531 395.390625 C 232.050781 393.761719 232.867188 392.128906 233.5 390.496094 C 234.042969 389.046875 234.589844 387.6875 235.042969 386.238281 C 235.40625 384.875 235.765625 383.425781 236.039062 381.976562 C 236.128906 381.34375 236.492188 380.707031 237.035156 380.34375 C 237.578125 379.980469 238.214844 379.800781 238.847656 379.890625 C 242.203125 380.433594 245.554688 380.617188 249 380.617188 C 252.445312 380.617188 256.070312 380.34375 259.695312 379.800781 C 264.230469 379.167969 268.761719 378.078125 273.292969 376.539062 C 277.734375 375.085938 282.175781 373.273438 286.617188 371.007812 C 287.070312 370.828125 287.523438 370.738281 288.066406 370.738281 C 288.519531 370.828125 288.972656 371.007812 289.425781 371.28125 C 294.140625 375.269531 298.945312 378.894531 303.660156 382.25 C 308.371094 385.601562 313.175781 388.683594 318.070312 391.492188 C 318.433594 391.675781 318.703125 392.039062 318.976562 392.398438 C 319.160156 392.761719 319.339844 393.125 319.339844 393.578125 C 319.339844 394.03125 319.25 394.394531 319.066406 394.757812 C 318.886719 395.121094 318.613281 395.480469 318.25 395.664062 C 316.4375 396.839844 314.625 397.929688 312.722656 398.925781 C 295.953125 407.445312 280.453125 408.261719 265.136719 395.753906 Z M 247.824219 374.816406 C 231.960938 374.816406 223.621094 368.109375 216.640625 359.042969 C 219.269531 367.203125 230.507812 374.273438 228.789062 383.878906 C 228.335938 386.238281 227.699219 388.503906 226.703125 390.859375 C 226.25 391.855469 225.796875 392.851562 225.34375 393.761719 C 224.800781 394.757812 224.347656 395.664062 223.710938 396.660156 C 223.53125 396.839844 223.441406 397.113281 223.167969 397.203125 C 222.988281 397.386719 222.714844 397.476562 222.441406 397.476562 C 222.171875 397.476562 221.898438 397.476562 221.71875 397.476562 C 221.445312 397.386719 221.265625 397.296875 221.082031 397.113281 C 212.742188 390.496094 204.585938 382.972656 196.789062 374.542969 C 189.175781 366.386719 182.015625 357.414062 175.308594 347.714844 C 175.035156 347.351562 174.945312 346.898438 175.035156 346.535156 C 175.035156 346.082031 175.21875 345.71875 175.582031 345.449219 C 177.300781 343.816406 178.84375 342.09375 180.292969 340.28125 C 181.742188 338.46875 183.011719 336.65625 184.191406 334.75 C 185.097656 333.210938 185.914062 331.761719 186.640625 330.21875 C 187.363281 328.679688 188 327.136719 188.453125 325.597656 C 188.542969 325.324219 188.632812 325.144531 188.8125 324.960938 C 188.996094 324.78125 189.175781 324.597656 189.449219 324.507812 C 189.628906 324.417969 189.902344 324.328125 190.171875 324.328125 C 190.445312 324.328125 190.628906 324.328125 190.898438 324.417969 C 194.34375 325.777344 197.96875 326.867188 201.867188 327.589844 C 205.765625 328.316406 209.753906 328.769531 213.832031 328.859375 C 218.542969 328.949219 223.53125 328.679688 228.515625 327.863281 C 233.5 327.136719 238.484375 325.960938 243.472656 324.328125 C 243.835938 324.238281 244.195312 324.238281 244.558594 324.328125 C 244.921875 324.417969 245.195312 324.691406 245.464844 324.960938 C 251.085938 332.484375 256.886719 339.644531 262.871094 346.355469 C 268.941406 353.152344 275.195312 359.40625 281.542969 365.207031 C 281.722656 365.390625 281.902344 365.660156 281.996094 365.933594 C 282.085938 366.203125 282.085938 366.476562 282.085938 366.839844 C 281.996094 367.109375 281.902344 367.382812 281.722656 367.65625 C 281.542969 367.925781 281.269531 368.109375 280.996094 368.199219 C 277.734375 369.648438 274.472656 370.828125 271.117188 371.824219 C 267.765625 372.820312 264.410156 373.546875 261.054688 374.089844 C 256.613281 374.90625 252.171875 375.085938 247.824219 374.816406 Z M 187.816406 301.578125 C 197.96875 308.285156 212.019531 313.722656 224.980469 313.722656 C 212.019531 318.707031 192.53125 311.003906 187.816406 301.578125 Z M 227.609375 321.789062 C 223.984375 322.242188 220.359375 322.425781 216.824219 322.332031 C 211.746094 322.242188 206.851562 321.519531 202.230469 320.339844 C 185.371094 316.804688 177.121094 302.484375 170.957031 289.519531 C 172.589844 300.398438 184.28125 315.535156 180.566406 326.503906 C 179.75 328.949219 178.570312 331.398438 177.121094 333.753906 C 176.488281 334.84375 175.761719 335.839844 175.035156 336.835938 C 174.3125 337.832031 173.496094 338.832031 172.679688 339.828125 C 172.5 340.007812 172.316406 340.097656 172.136719 340.191406 C 171.953125 340.28125 171.683594 340.28125 171.5 340.28125 C 171.230469 340.28125 171.046875 340.191406 170.867188 340.097656 C 170.6875 340.007812 170.503906 339.828125 170.414062 339.644531 C 169.507812 338.195312 168.511719 336.65625 167.605469 335.113281 C 166.699219 333.664062 165.789062 332.121094 164.882812 330.492188 C 159.082031 320.339844 154.007812 310.097656 149.835938 299.855469 C 145.578125 289.339844 142.132812 278.734375 139.59375 268.308594 C 139.503906 268.039062 139.503906 267.675781 139.6875 267.402344 C 139.777344 267.132812 139.957031 266.859375 140.230469 266.679688 C 142.222656 265.320312 144.035156 263.777344 145.847656 262.238281 C 147.664062 260.695312 149.292969 259.066406 150.925781 257.433594 C 152.285156 255.984375 153.554688 254.53125 154.734375 252.992188 C 155.910156 251.449219 157.089844 249.910156 158.085938 248.367188 C 158.175781 248.1875 158.359375 248.007812 158.539062 247.914062 C 158.722656 247.824219 158.902344 247.734375 159.082031 247.734375 C 159.265625 247.734375 159.445312 247.734375 159.71875 247.734375 C 159.898438 247.824219 160.082031 247.914062 160.261719 248.007812 C 162.980469 250.183594 166.0625 251.902344 169.417969 253.355469 C 172.769531 254.804688 176.394531 255.890625 180.292969 256.617188 C 184.191406 257.34375 188.269531 257.707031 192.53125 257.707031 C 196.699219 257.707031 201.050781 257.253906 205.492188 256.4375 C 205.855469 256.34375 206.21875 256.4375 206.488281 256.617188 C 206.761719 256.800781 207.035156 257.070312 207.125 257.34375 C 209.753906 263.777344 212.5625 270.214844 215.734375 276.558594 C 218.816406 282.902344 222.171875 289.25 225.796875 295.503906 C 227.972656 299.308594 230.238281 303.027344 232.503906 306.652344 C 234.769531 310.277344 237.21875 313.902344 239.574219 317.347656 C 239.753906 317.53125 239.847656 317.800781 239.847656 317.984375 C 239.847656 318.253906 239.847656 318.4375 239.753906 318.707031 C 239.664062 318.980469 239.574219 319.160156 239.394531 319.25 C 239.210938 319.433594 239.03125 319.523438 238.757812 319.613281 C 234.953125 320.609375 231.234375 321.335938 227.609375 321.789062 Z M 165.789062 226.070312 C 172.769531 233.777344 183.195312 240.574219 193.527344 242.023438 C 182.46875 245.558594 168.148438 235.949219 165.789062 226.070312 Z M 193.164062 250.363281 C 170.6875 249.730469 155.730469 241.027344 155.09375 216.464844 C 152.105469 233.050781 157 241.027344 144.582031 254.078125 C 143.765625 254.894531 142.949219 255.710938 142.132812 256.527344 C 141.316406 257.34375 140.410156 258.066406 139.503906 258.792969 C 139.324219 258.882812 139.140625 258.972656 138.960938 259.066406 C 138.78125 259.066406 138.597656 259.066406 138.417969 258.972656 C 138.234375 258.882812 138.054688 258.792969 137.964844 258.613281 C 137.871094 258.429688 137.78125 258.25 137.691406 258.066406 C 135.699219 247.734375 134.519531 237.671875 134.246094 227.882812 C 133.882812 218.09375 134.429688 208.578125 135.789062 199.601562 C 135.789062 199.421875 135.878906 199.242188 135.96875 199.148438 C 136.058594 199.058594 136.152344 198.878906 136.332031 198.789062 C 138.6875 197.429688 140.863281 195.976562 143.039062 194.527344 C 145.214844 193.078125 147.390625 191.445312 149.476562 189.8125 C 151.105469 188.546875 152.738281 187.277344 154.28125 185.917969 C 155.820312 184.558594 157.453125 183.195312 158.992188 181.746094 C 159.082031 181.65625 159.265625 181.566406 159.445312 181.476562 C 159.628906 181.382812 159.71875 181.382812 159.898438 181.382812 C 160.082031 181.382812 160.261719 181.476562 160.351562 181.566406 C 160.535156 181.65625 160.625 181.746094 160.714844 181.929688 C 161.984375 183.832031 163.523438 185.554688 165.246094 187.09375 C 166.96875 188.726562 168.871094 190.085938 170.957031 191.355469 C 173.496094 192.894531 176.304688 194.074219 179.296875 195.070312 C 182.289062 196.066406 185.460938 196.703125 188.8125 197.066406 C 189.085938 197.066406 189.265625 197.246094 189.449219 197.335938 C 189.628906 197.519531 189.71875 197.699219 189.8125 197.972656 C 191.082031 206.128906 192.800781 214.46875 194.976562 222.898438 C 197.152344 231.238281 199.871094 239.757812 202.953125 248.277344 C 203.046875 248.460938 203.046875 248.640625 203.046875 248.824219 C 203.046875 249.003906 202.953125 249.183594 202.863281 249.277344 C 202.773438 249.457031 202.683594 249.546875 202.5 249.636719 C 202.320312 249.730469 202.230469 249.820312 202.046875 249.820312 C 199.148438 250.273438 196.15625 250.363281 193.164062 250.363281 Z M 167.058594 171.324219 C 169.234375 176.671875 173.132812 181.023438 178.207031 184.105469 C 180.929688 185.734375 184.011719 187.003906 187.363281 187.820312 C 187.546875 187.820312 187.636719 187.820312 187.726562 187.730469 C 187.816406 187.636719 187.90625 187.457031 187.90625 187.367188 C 185.1875 161.261719 186.640625 152.289062 193.617188 132.347656 C 193.707031 132.164062 193.617188 131.984375 193.4375 131.894531 C 193.253906 131.804688 193.074219 131.710938 192.894531 131.804688 C 190.082031 133.433594 185.460938 136.0625 183.464844 137.242188 C 157.996094 151.652344 148.386719 157.363281 139.867188 186.550781 C 139.777344 186.730469 139.867188 186.914062 140.046875 187.003906 C 140.230469 187.09375 140.410156 187.09375 140.59375 187.003906 C 141.769531 186.097656 143.039062 185.28125 144.128906 184.375 C 149.203125 180.476562 153.917969 176.128906 158.175781 171.59375 C 160.171875 169.417969 170.6875 154.191406 170.777344 154.191406 C 171.140625 154.28125 164.613281 162.984375 167.058594 171.324219 Z M 307.828125 407.808594 C 302.75 409.714844 297.496094 411.074219 292.238281 411.707031 C 291.964844 411.707031 291.785156 411.980469 291.875 412.160156 C 292.148438 414.425781 292.148438 416.691406 292.054688 419.050781 C 291.964844 421.40625 291.601562 423.761719 291.058594 426.121094 C 291.058594 426.210938 291.058594 426.390625 291.148438 426.480469 C 291.242188 426.574219 291.332031 426.664062 291.511719 426.664062 C 318.433594 429.109375 335.566406 418.6875 350.519531 406.269531 C 350.703125 406.179688 350.792969 405.996094 350.703125 405.726562 C 350.609375 405.542969 350.519531 405.363281 350.25 405.363281 C 341.820312 405.089844 333.027344 401.738281 325.773438 398.109375 C 325.59375 398.019531 325.414062 398.019531 325.320312 398.109375 C 319.972656 402.28125 313.992188 405.542969 307.828125 407.808594 Z M 307.828125 407.808594 " fill-opacity="1" fill-rule="evenodd"/><g clip-path="url(#f3313863a3)"><path fill="#ffffff" d="M 684.296875 355.582031 L 698.3125 377.347656 L 684.296875 399.109375 L 558.785156 399.109375 L 557.78125 355.582031 Z M 687.539062 405.066406 L 705.390625 377.347656 L 687.539062 349.632812 L 557.648438 349.632812 L 557.238281 332.011719 C 561.738281 329.015625 564.707031 323.90625 564.707031 318.097656 C 564.707031 308.867188 557.222656 301.386719 547.996094 301.386719 C 538.765625 301.386719 531.28125 308.867188 531.28125 318.097656 C 531.28125 323.90625 534.253906 329.015625 538.75 332.011719 L 537.703125 377.347656 L 430.285156 377.347656 L 412.4375 405.066406 L 430.285156 432.78125 L 536.425781 432.78125 L 532.945312 583.933594 C 527.386719 584.933594 523.164062 589.773438 523.164062 595.617188 L 523.164062 600.546875 C 521.417969 601.585938 520.191406 603.40625 520.191406 605.582031 L 520.191406 619.9375 C 520.191406 623.226562 522.855469 625.890625 526.140625 625.890625 L 569.847656 625.890625 C 573.132812 625.890625 575.796875 623.226562 575.796875 619.9375 L 575.796875 605.582031 C 575.796875 603.40625 574.570312 601.585938 572.828125 600.550781 L 572.828125 595.617188 C 572.828125 589.773438 568.601562 584.933594 563.042969 583.933594 L 561.167969 502.574219 L 663.738281 502.574219 L 681.585938 474.863281 L 663.738281 447.140625 L 559.890625 447.140625 L 558.921875 405.066406 L 687.539062 405.066406 " fill-opacity="1" fill-rule="nonzero"/></g><g fill="#ffffff" fill-opacity="1"><g transform="translate(148.313917, 627.672516)"><g><path d="M 81.140625 0 L 124.644531 0 C 124.644531 -11.746094 124.210938 -21.753906 123.773438 -30.453125 C 123.121094 -39.15625 121.597656 -46.332031 119.425781 -51.988281 C 117.25 -57.644531 113.769531 -61.996094 109.417969 -65.042969 C 104.847656 -67.871094 98.542969 -69.609375 90.492188 -70.042969 C 95.714844 -70.480469 100.0625 -71.566406 103.980469 -73.523438 C 107.894531 -75.484375 110.941406 -78.09375 113.550781 -81.355469 C 115.945312 -84.402344 117.683594 -88.101562 118.988281 -92.234375 C 120.078125 -96.367188 120.730469 -100.714844 120.730469 -105.503906 L 120.511719 -113.550781 C 119.859375 -120.511719 118.335938 -126.601562 116.160156 -131.605469 C 113.769531 -136.390625 110.503906 -140.523438 106.589844 -143.570312 C 102.675781 -146.613281 97.886719 -148.789062 92.449219 -150.097656 C 87.011719 -151.402344 80.921875 -152.269531 74.394531 -152.269531 L 4.351562 -150.097656 L 4.351562 0 L 46.769531 0 L 46.769531 -47.203125 C 53.511719 -48.945312 58.949219 -49.8125 63.300781 -49.8125 C 70.042969 -49.8125 74.613281 -47.421875 77.222656 -42.851562 C 79.832031 -38.066406 81.140625 -30.453125 81.140625 -19.578125 Z M 44.8125 -114.636719 L 64.824219 -115.945312 C 67.652344 -115.945312 70.042969 -115.074219 71.785156 -113.332031 C 73.523438 -111.59375 74.394531 -108.984375 74.613281 -105.285156 L 74.613281 -89.621094 C 74.613281 -86.792969 73.960938 -84.621094 72.871094 -82.878906 C 71.785156 -81.140625 70.480469 -80.050781 69.175781 -79.179688 C 67.652344 -78.3125 66.128906 -77.875 64.824219 -77.660156 C 63.300781 -77.441406 62.214844 -77.441406 61.5625 -77.441406 L 44.8125 -77.441406 Z M 44.8125 -114.636719 "/></g></g></g><g fill="#ffffff" fill-opacity="1"><g transform="translate(277.308975, 627.672516)"><g><path d="M 4.351562 -51.988281 C 4.351562 -45.027344 4.785156 -38.285156 5.875 -31.542969 C 6.742188 -24.796875 9.136719 -18.707031 12.617188 -13.488281 C 16.097656 -8.265625 21.316406 -3.914062 28.0625 -0.652344 C 34.804688 2.828125 43.941406 4.351562 55.46875 4.351562 C 67.871094 4.351562 77.660156 2.828125 84.835938 -0.433594 C 91.796875 -3.699219 97.234375 -8.046875 100.714844 -13.488281 C 104.195312 -18.707031 106.371094 -24.796875 107.242188 -31.542969 C 108.113281 -38.285156 108.546875 -45.246094 108.546875 -52.425781 C 108.546875 -58.734375 108.113281 -65.257812 107.675781 -72.21875 C 107.023438 -79.179688 105.066406 -85.488281 102.023438 -91.144531 C 98.976562 -96.800781 94.191406 -101.585938 87.664062 -105.285156 C 81.140625 -108.984375 71.785156 -110.941406 59.820312 -110.941406 L 55.253906 -110.941406 C 42.636719 -110.289062 32.847656 -108.113281 25.886719 -104.632812 C 18.925781 -100.933594 13.921875 -96.367188 10.875 -90.710938 C 7.613281 -85.054688 5.65625 -78.964844 5.222656 -72.21875 C 4.566406 -65.476562 4.351562 -58.734375 4.351562 -51.988281 Z M 55.90625 -74.832031 C 57.863281 -75.265625 59.601562 -75.484375 60.910156 -75.484375 C 63.519531 -75.484375 65.476562 -74.832031 66.78125 -73.742188 C 68.085938 -72.4375 68.957031 -70.914062 69.390625 -68.738281 C 69.828125 -66.5625 69.828125 -63.734375 69.828125 -60.691406 C 69.828125 -57.429688 69.828125 -53.730469 69.828125 -49.8125 C 69.828125 -45.246094 69.609375 -41.332031 69.609375 -38.066406 C 69.609375 -34.585938 69.175781 -31.757812 68.304688 -29.585938 C 67.433594 -27.410156 65.910156 -25.667969 64.171875 -24.582031 C 62.214844 -23.492188 59.386719 -23.058594 55.90625 -23.058594 C 52.425781 -23.058594 49.597656 -23.492188 47.855469 -24.582031 C 46.117188 -25.667969 44.8125 -27.410156 43.941406 -29.585938 C 43.070312 -31.757812 42.636719 -34.585938 42.636719 -38.066406 C 42.417969 -41.332031 42.417969 -45.246094 42.417969 -49.8125 C 42.417969 -54.382812 42.417969 -58.082031 42.636719 -61.125 C 42.636719 -63.953125 43.070312 -66.347656 43.941406 -68.304688 C 44.8125 -70.042969 46.117188 -71.566406 47.855469 -72.4375 C 49.597656 -73.308594 52.425781 -74.175781 55.90625 -74.832031 Z M 55.90625 -74.832031 "/></g></g></g><g fill="#ffffff" fill-opacity="1"><g transform="translate(390.206846, 627.672516)"><g><path d="M 6.742188 -106.15625 L 6.527344 -51.988281 C 6.527344 -45.027344 6.960938 -38.285156 8.046875 -31.542969 C 8.917969 -24.796875 11.3125 -18.707031 14.792969 -13.488281 C 18.273438 -8.265625 23.492188 -3.914062 30.238281 -0.652344 C 36.980469 2.828125 46.117188 4.351562 57.644531 4.351562 C 70.042969 4.351562 79.832031 2.828125 87.011719 -0.433594 C 93.972656 -3.699219 99.410156 -8.046875 102.890625 -13.488281 C 106.371094 -18.707031 108.546875 -24.796875 109.417969 -31.542969 C 110.289062 -38.285156 110.722656 -45.246094 110.722656 -52.425781 L 110.503906 -108.765625 L 71.785156 -106.15625 L 72.003906 -49.8125 C 72.003906 -45.246094 71.785156 -41.332031 71.785156 -38.066406 C 71.785156 -34.804688 71.351562 -32.195312 70.480469 -30.019531 C 69.609375 -27.84375 68.085938 -26.320312 66.347656 -25.234375 C 64.390625 -23.929688 61.5625 -23.277344 58.082031 -23.058594 C 57.644531 -23.058594 57.210938 -22.839844 56.773438 -22.839844 C 56.339844 -22.839844 56.121094 -22.839844 55.90625 -22.839844 C 52.859375 -22.839844 50.683594 -23.277344 49.160156 -24.582031 C 47.640625 -25.886719 46.550781 -27.625 45.898438 -30.019531 C 45.027344 -32.195312 44.59375 -35.023438 44.59375 -38.503906 C 44.59375 -41.765625 44.59375 -45.464844 44.59375 -49.8125 L 45.679688 -108.765625 Z M 6.742188 -106.15625 "/></g></g></g><g fill="#ffffff" fill-opacity="1"><g transform="translate(507.458434, 627.672516)"><g/></g></g><g fill="#ffffff" fill-opacity="1"><g transform="translate(592.24591, 622.332733)"><g><path d="M 108.78125 -45.996094 L 69.976562 -42.074219 C 69.976562 -38.148438 69.757812 -34.660156 69.757812 -31.828125 C 69.539062 -28.773438 69.105469 -26.378906 68.234375 -24.414062 C 67.359375 -22.453125 65.835938 -20.925781 64.089844 -20.054688 C 62.128906 -19.183594 59.511719 -18.746094 56.023438 -18.746094 C 52.535156 -18.746094 49.703125 -19.183594 47.957031 -20.273438 C 46.214844 -21.363281 44.90625 -23.109375 44.035156 -25.503906 C 43.164062 -27.683594 42.726562 -30.738281 42.726562 -34.226562 C 42.507812 -37.714844 42.507812 -42.074219 42.507812 -47.085938 L 108.78125 -52.972656 C 108.5625 -58.859375 107.90625 -65.179688 107.035156 -71.9375 C 105.945312 -78.695312 103.765625 -85.019531 100.277344 -90.902344 C 96.789062 -96.570312 91.992188 -101.367188 85.453125 -105.292969 C 78.914062 -109.214844 70.195312 -111.175781 59.078125 -111.175781 L 55.371094 -111.175781 C 42.726562 -110.523438 32.917969 -108.34375 25.941406 -104.855469 C 18.964844 -101.148438 13.953125 -96.570312 10.898438 -90.902344 C 7.628906 -85.234375 5.667969 -79.132812 5.230469 -72.375 C 4.578125 -65.617188 4.359375 -58.859375 4.359375 -52.101562 C 4.359375 -45.125 4.796875 -38.367188 5.886719 -31.609375 C 6.757812 -24.851562 9.15625 -18.746094 12.644531 -13.515625 C 16.132812 -8.285156 21.363281 -3.925781 28.121094 -0.652344 C 34.878906 2.832031 44.035156 4.359375 55.589844 4.359375 C 67.140625 4.359375 76.296875 3.050781 83.273438 0.21875 C 90.25 -2.617188 95.480469 -6.320312 99.1875 -11.117188 C 102.894531 -15.695312 105.292969 -20.925781 106.597656 -27.03125 C 107.90625 -33.136719 108.5625 -39.457031 108.78125 -45.996094 Z M 69.539062 -61.691406 L 69.324219 -61.472656 L 69.324219 -61.691406 L 42.507812 -58.859375 L 42.507812 -59.078125 L 42.726562 -75.207031 C 42.726562 -76.953125 43.164062 -78.695312 44.035156 -80.003906 C 44.90625 -81.3125 46.214844 -82.402344 47.523438 -83.273438 C 48.832031 -84.144531 50.574219 -84.800781 52.320312 -85.234375 C 54.0625 -85.671875 55.589844 -85.890625 57.332031 -85.890625 C 59.949219 -85.890625 62.128906 -85.019531 64.089844 -83.492188 C 65.835938 -81.75 67.140625 -80.003906 67.578125 -77.824219 L 69.324219 -61.691406 Z M 69.539062 -61.691406 "/></g></g></g><g fill="#ffffff" fill-opacity="1"><g transform="translate(378.793356, 329.831813)"><g><path d="M 52.335938 -132.917969 L 1.714844 -128.363281 C 2.089844 -114.703125 2.738281 -100.785156 3.398438 -86.339844 C 3.742188 -73.992188 4.117188 -60.328125 4.539062 -45.089844 C 4.960938 -29.851562 5.636719 -14.878906 6.042969 -0.167969 L 49.132812 -1.355469 L 50.976562 -77.398438 C 53.234375 -81.40625 56.554688 -84.914062 61.203125 -87.9375 C 65.855469 -90.957031 70.800781 -92.671875 76.582031 -92.832031 C 78.949219 -92.898438 80.835938 -91.109375 82.246094 -87.730469 C 83.398438 -84.078125 84.308594 -79.632812 84.988281 -74.132812 C 85.664062 -68.628906 85.832031 -62.585938 86.019531 -55.753906 C 85.945312 -48.914062 85.871094 -42.078125 85.527344 -35.492188 C 85.191406 -28.648438 84.839844 -22.328125 84.476562 -16.53125 C 84.109375 -10.738281 83.714844 -5.992188 83.289062 -2.300781 L 135.578125 -3.746094 C 135.945312 -28.472656 135.898438 -49.242188 135.957031 -66.074219 C 136.019531 -82.902344 134.589844 -96.539062 131.9375 -106.980469 C 129.289062 -117.164062 124.617188 -124.398438 118.191406 -128.6875 C 111.761719 -132.980469 102.234375 -135.085938 89.625 -134.738281 C 85.421875 -134.621094 81.246094 -133.453125 77.363281 -131.242188 C 73.480469 -129.03125 69.878906 -126.039062 66.566406 -122.269531 C 63.253906 -118.496094 60.207031 -114.464844 57.703125 -109.925781 C 55.207031 -105.125 52.972656 -100.332031 51.527344 -95.558594 Z M 52.335938 -132.917969 "/></g></g></g></svg>